<svg width="42" height="42" viewBox="0 0 42 42" fill="none" xmlns="http://www.w3.org/2000/svg">
<path d="M33 9.64865H35M1 18.2973L2.58 23.8843C2.83014 24.77 3.33668 25.5456 4.02508 26.0967C4.71349 26.6479 5.54737 26.9456 6.404 26.9459H9M41 18.2973L39.42 23.8843C39.1699 24.77 38.6633 25.5456 37.9749 26.0967C37.2865 26.6479 36.4526 26.9456 35.596 26.9459H33M16 25.8649C16 25.8649 16 41 9 41M26 25.8649C26 25.8649 26 41 33 41M21 25.8649V41M41 2.2973V18.2973H1V2.2973C1 1.95323 1.12643 1.62326 1.35147 1.37997C1.57652 1.13668 1.88174 1 2.2 1H39.8C40.1183 1 40.4235 1.13668 40.6485 1.37997C40.8736 1.62326 41 1.95323 41 2.2973V2.2973Z" stroke="black" stroke-width="1.5" stroke-linecap="round" stroke-linejoin="round"/>
</svg>
